<svg xmlns="http://www.w3.org/2000/svg" version="1.1" xmlns:xlink="http://www.w3.org/1999/xlink" xmlns:svgjs="http://svgjs.com/svgjs" width="3840" height="2160" preserveAspectRatio="none" viewBox="0 0 3840 2160"><g mask="url(&quot;#SvgjsMask1036&quot;)" fill="none"><rect width="3840" height="2160" x="0" y="0" fill="url(#SvgjsLinearGradient1037)"></rect><path d="M3840 0L2699.84 0L3840 67.54z" fill="rgba(255, 255, 255, .1)"></path><path d="M2699.84 0L3840 67.54L3840 763.13L1208.63 0z" fill="rgba(255, 255, 255, .075)"></path><path d="M1208.63 0L3840 763.13L3840 1505.28L464.2500000000001 0z" fill="rgba(255, 255, 255, .05)"></path><path d="M464.25 0L3840 1505.28L3840 1683.19L150.33999999999997 0z" fill="rgba(255, 255, 255, .025)"></path><path d="M0 2160L1833.49 2160L0 1207.99z" fill="rgba(0, 0, 0, .1)"></path><path d="M0 1207.99L1833.49 2160L1990.21 2160L0 1051.4z" fill="rgba(0, 0, 0, .075)"></path><path d="M0 1051.4L1990.21 2160L2213.66 2160L0 925.5200000000001z" fill="rgba(0, 0, 0, .05)"></path><path d="M0 925.52L2213.66 2160L2471.13 2160L0 516.3299999999999z" fill="rgba(0, 0, 0, .025)"></path></g><defs><mask id="SvgjsMask1036"><rect width="3840" height="2160" fill="#ffffff"></rect></mask><linearGradient x1="10.94%" y1="119.44%" x2="89.06%" y2="-19.44%" gradientUnits="userSpaceOnUse" id="SvgjsLinearGradient1037"><stop stop-color="#0e2a47" offset="0"></stop><stop stop-color="#00459e" offset="1"></stop></linearGradient></defs></svg>