<svg xmlns="http://www.w3.org/2000/svg" version="1.1" xmlns:xlink="http://www.w3.org/1999/xlink" xmlns:svgjs="http://svgjs.com/svgjs" width="1440" height="560" preserveAspectRatio="none" viewBox="0 0 1440 560"><g mask="url(&quot;#SvgjsMask1000&quot;)" fill="none"><rect width="1440" height="560" x="0" y="0" fill="#0e2a47"></rect><path d="M-81.42 385.67L-81.42 385.67" stroke="#132e65" stroke-width="1.5"></path><path d="M-81.42 385.67L-42.39 514.69" stroke="#132e65" stroke-width="1.5"></path><path d="M-81.42 385.67L78.21 341.29" stroke="#132e65" stroke-width="1.5"></path><path d="M-81.42 385.67L51.1 511.38" stroke="#132e65" stroke-width="1.5"></path><path d="M-42.39 514.69L-42.39 514.69" stroke="#132e65" stroke-width="1.5"></path><path d="M-42.39 514.69L51.1 511.38" stroke="#132e65" stroke-width="1.5"></path><path d="M-42.39 514.69L-97.71 640.27" stroke="#132e65" stroke-width="1.5"></path><path d="M-42.39 514.69L42.08 700.88" stroke="#132e65" stroke-width="1.5"></path><path d="M-42.39 514.69L78.21 341.29" stroke="#132e65" stroke-width="1.5"></path><path d="M-42.39 514.69L229.79 546.52" stroke="#132e65" stroke-width="1.5"></path><path d="M-97.71 640.27L-97.71 640.27" stroke="#132e65" stroke-width="1.5"></path><path d="M-97.71 640.27L42.08 700.88" stroke="#132e65" stroke-width="1.5"></path><path d="M78.21 341.29L78.21 341.29" stroke="#132e65" stroke-width="1.5"></path><path d="M78.21 341.29L51.1 511.38" stroke="#132e65" stroke-width="1.5"></path><path d="M78.21 341.29L258.86 394.35" stroke="#132e65" stroke-width="1.5"></path><path d="M78.21 341.29L229.79 546.52" stroke="#132e65" stroke-width="1.5"></path><path d="M51.1 511.38L51.1 511.38" stroke="#132e65" stroke-width="1.5"></path><path d="M42.08 700.88L42.08 700.88" stroke="#132e65" stroke-width="1.5"></path><path d="M42.08 700.88L203.68 699.47" stroke="#132e65" stroke-width="1.5"></path><path d="M258.86 394.35L258.86 394.35" stroke="#132e65" stroke-width="1.5"></path><path d="M258.86 394.35L374 373.34" stroke="#132e65" stroke-width="1.5"></path><path d="M258.86 394.35L346.45 492.35" stroke="#132e65" stroke-width="1.5"></path><path d="M258.86 394.35L229.79 546.52" stroke="#132e65" stroke-width="1.5"></path><path d="M229.79 546.52L229.79 546.52" stroke="#132e65" stroke-width="1.5"></path><path d="M229.79 546.52L346.45 492.35" stroke="#132e65" stroke-width="1.5"></path><path d="M203.68 699.47L203.68 699.47" stroke="#132e65" stroke-width="1.5"></path><path d="M203.68 699.47L229.79 546.52" stroke="#132e65" stroke-width="1.5"></path><path d="M203.68 699.47L373.75 646.34" stroke="#132e65" stroke-width="1.5"></path><path d="M203.68 699.47L51.1 511.38" stroke="#132e65" stroke-width="1.5"></path><path d="M374 373.34L374 373.34" stroke="#132e65" stroke-width="1.5"></path><path d="M374 373.34L346.45 492.35" stroke="#132e65" stroke-width="1.5"></path><path d="M346.45 492.35L346.45 492.35" stroke="#132e65" stroke-width="1.5"></path><path d="M346.45 492.35L373.75 646.34" stroke="#132e65" stroke-width="1.5"></path><path d="M346.45 492.35L527.59 529.95" stroke="#132e65" stroke-width="1.5"></path><path d="M346.45 492.35L510.03 388.96" stroke="#132e65" stroke-width="1.5"></path><path d="M373.75 646.34L373.75 646.34" stroke="#132e65" stroke-width="1.5"></path><path d="M373.75 646.34L492.55 647.31" stroke="#132e65" stroke-width="1.5"></path><path d="M373.75 646.34L229.79 546.52" stroke="#132e65" stroke-width="1.5"></path><path d="M373.75 646.34L527.59 529.95" stroke="#132e65" stroke-width="1.5"></path><path d="M373.75 646.34L374 373.34" stroke="#132e65" stroke-width="1.5"></path><path d="M510.03 388.96L510.03 388.96" stroke="#132e65" stroke-width="1.5"></path><path d="M510.03 388.96L374 373.34" stroke="#132e65" stroke-width="1.5"></path><path d="M510.03 388.96L527.59 529.95" stroke="#132e65" stroke-width="1.5"></path><path d="M510.03 388.96L657.93 226.46" stroke="#132e65" stroke-width="1.5"></path><path d="M510.03 388.96L679.28 542.24" stroke="#132e65" stroke-width="1.5"></path><path d="M510.03 388.96L258.86 394.35" stroke="#132e65" stroke-width="1.5"></path><path d="M527.59 529.95L527.59 529.95" stroke="#132e65" stroke-width="1.5"></path><path d="M527.59 529.95L492.55 647.31" stroke="#132e65" stroke-width="1.5"></path><path d="M527.59 529.95L679.28 542.24" stroke="#132e65" stroke-width="1.5"></path><path d="M492.55 647.31L492.55 647.31" stroke="#132e65" stroke-width="1.5"></path><path d="M657.93 226.46L657.93 226.46" stroke="#132e65" stroke-width="1.5"></path><path d="M657.93 226.46L824.83 103.06" stroke="#132e65" stroke-width="1.5"></path><path d="M657.93 226.46L857.64 405.78" stroke="#132e65" stroke-width="1.5"></path><path d="M679.28 542.24L679.28 542.24" stroke="#132e65" stroke-width="1.5"></path><path d="M679.28 542.24L802.95 559.6" stroke="#132e65" stroke-width="1.5"></path><path d="M679.28 542.24L680.99 668.7" stroke="#132e65" stroke-width="1.5"></path><path d="M679.28 542.24L855.96 658.95" stroke="#132e65" stroke-width="1.5"></path><path d="M679.28 542.24L492.55 647.31" stroke="#132e65" stroke-width="1.5"></path><path d="M679.28 542.24L857.64 405.78" stroke="#132e65" stroke-width="1.5"></path><path d="M680.99 668.7L680.99 668.7" stroke="#132e65" stroke-width="1.5"></path><path d="M680.99 668.7L802.95 559.6" stroke="#132e65" stroke-width="1.5"></path><path d="M680.99 668.7L855.96 658.95" stroke="#132e65" stroke-width="1.5"></path><path d="M680.99 668.7L492.55 647.31" stroke="#132e65" stroke-width="1.5"></path><path d="M680.99 668.7L527.59 529.95" stroke="#132e65" stroke-width="1.5"></path><path d="M680.99 668.7L976.24 670.61" stroke="#132e65" stroke-width="1.5"></path><path d="M824.83 103.06L824.83 103.06" stroke="#132e65" stroke-width="1.5"></path><path d="M824.83 103.06L1006.4 100.58" stroke="#132e65" stroke-width="1.5"></path><path d="M857.64 405.78L857.64 405.78" stroke="#132e65" stroke-width="1.5"></path><path d="M857.64 405.78L999.87 388.19" stroke="#132e65" stroke-width="1.5"></path><path d="M802.95 559.6L802.95 559.6" stroke="#132e65" stroke-width="1.5"></path><path d="M802.95 559.6L855.96 658.95" stroke="#132e65" stroke-width="1.5"></path><path d="M802.95 559.6L857.64 405.78" stroke="#132e65" stroke-width="1.5"></path><path d="M802.95 559.6L967.35 549.35" stroke="#132e65" stroke-width="1.5"></path><path d="M802.95 559.6L976.24 670.61" stroke="#132e65" stroke-width="1.5"></path><path d="M855.96 658.95L855.96 658.95" stroke="#132e65" stroke-width="1.5"></path><path d="M855.96 658.95L976.24 670.61" stroke="#132e65" stroke-width="1.5"></path><path d="M1004.79 -58.24L1004.79 -58.24" stroke="#132e65" stroke-width="1.5"></path><path d="M1004.79 -58.24L1154.79 -95.52" stroke="#132e65" stroke-width="1.5"></path><path d="M1004.79 -58.24L1006.4 100.58" stroke="#132e65" stroke-width="1.5"></path><path d="M1004.79 -58.24L1126.7 59.45" stroke="#132e65" stroke-width="1.5"></path><path d="M1006.4 100.58L1006.4 100.58" stroke="#132e65" stroke-width="1.5"></path><path d="M1006.4 100.58L1126.7 59.45" stroke="#132e65" stroke-width="1.5"></path><path d="M1006.4 100.58L977.61 259.8" stroke="#132e65" stroke-width="1.5"></path><path d="M1006.4 100.58L1132.88 255.62" stroke="#132e65" stroke-width="1.5"></path><path d="M977.61 259.8L977.61 259.8" stroke="#132e65" stroke-width="1.5"></path><path d="M977.61 259.8L999.87 388.19" stroke="#132e65" stroke-width="1.5"></path><path d="M977.61 259.8L1132.88 255.62" stroke="#132e65" stroke-width="1.5"></path><path d="M999.87 388.19L999.87 388.19" stroke="#132e65" stroke-width="1.5"></path><path d="M999.87 388.19L1121.13 343.96" stroke="#132e65" stroke-width="1.5"></path><path d="M967.35 549.35L967.35 549.35" stroke="#132e65" stroke-width="1.5"></path><path d="M967.35 549.35L976.24 670.61" stroke="#132e65" stroke-width="1.5"></path><path d="M967.35 549.35L1089.62 642.55" stroke="#132e65" stroke-width="1.5"></path><path d="M967.35 549.35L855.96 658.95" stroke="#132e65" stroke-width="1.5"></path><path d="M967.35 549.35L1129.1 526.38" stroke="#132e65" stroke-width="1.5"></path><path d="M967.35 549.35L999.87 388.19" stroke="#132e65" stroke-width="1.5"></path><path d="M976.24 670.61L976.24 670.61" stroke="#132e65" stroke-width="1.5"></path><path d="M976.24 670.61L1089.62 642.55" stroke="#132e65" stroke-width="1.5"></path><path d="M976.24 670.61L1129.1 526.38" stroke="#132e65" stroke-width="1.5"></path><path d="M976.24 670.61L1243.1 711.95" stroke="#132e65" stroke-width="1.5"></path><path d="M1154.79 -95.52L1154.79 -95.52" stroke="#132e65" stroke-width="1.5"></path><path d="M1154.79 -95.52L1293.2 -93.76" stroke="#132e65" stroke-width="1.5"></path><path d="M1154.79 -95.52L1126.7 59.45" stroke="#132e65" stroke-width="1.5"></path><path d="M1154.79 -95.52L1266.26 54.41" stroke="#132e65" stroke-width="1.5"></path><path d="M1154.79 -95.52L1006.4 100.58" stroke="#132e65" stroke-width="1.5"></path><path d="M1126.7 59.45L1126.7 59.45" stroke="#132e65" stroke-width="1.5"></path><path d="M1126.7 59.45L1266.26 54.41" stroke="#132e65" stroke-width="1.5"></path><path d="M1126.7 59.45L1132.88 255.62" stroke="#132e65" stroke-width="1.5"></path><path d="M1132.88 255.62L1132.88 255.62" stroke="#132e65" stroke-width="1.5"></path><path d="M1132.88 255.62L1121.13 343.96" stroke="#132e65" stroke-width="1.5"></path><path d="M1132.88 255.62L1255.87 227.35" stroke="#132e65" stroke-width="1.5"></path><path d="M1121.13 343.96L1121.13 343.96" stroke="#132e65" stroke-width="1.5"></path><path d="M1121.13 343.96L977.61 259.8" stroke="#132e65" stroke-width="1.5"></path><path d="M1121.13 343.96L1255.87 227.35" stroke="#132e65" stroke-width="1.5"></path><path d="M1129.1 526.38L1129.1 526.38" stroke="#132e65" stroke-width="1.5"></path><path d="M1129.1 526.38L1089.62 642.55" stroke="#132e65" stroke-width="1.5"></path><path d="M1129.1 526.38L1282.58 508.6" stroke="#132e65" stroke-width="1.5"></path><path d="M1089.62 642.55L1089.62 642.55" stroke="#132e65" stroke-width="1.5"></path><path d="M1089.62 642.55L1243.1 711.95" stroke="#132e65" stroke-width="1.5"></path><path d="M1293.2 -93.76L1293.2 -93.76" stroke="#132e65" stroke-width="1.5"></path><path d="M1293.2 -93.76L1403.92 -56.77" stroke="#132e65" stroke-width="1.5"></path><path d="M1293.2 -93.76L1266.26 54.41" stroke="#132e65" stroke-width="1.5"></path><path d="M1266.26 54.41L1266.26 54.41" stroke="#132e65" stroke-width="1.5"></path><path d="M1255.87 227.35L1255.87 227.35" stroke="#132e65" stroke-width="1.5"></path><path d="M1255.87 227.35L1407.24 210.64" stroke="#132e65" stroke-width="1.5"></path><path d="M1255.87 227.35L1266.26 54.41" stroke="#132e65" stroke-width="1.5"></path><path d="M1255.87 227.35L1126.7 59.45" stroke="#132e65" stroke-width="1.5"></path><path d="M1255.87 227.35L1398.68 394.23" stroke="#132e65" stroke-width="1.5"></path><path d="M1282.58 508.6L1282.58 508.6" stroke="#132e65" stroke-width="1.5"></path><path d="M1282.58 508.6L1398.68 394.23" stroke="#132e65" stroke-width="1.5"></path><path d="M1282.58 508.6L1243.1 711.95" stroke="#132e65" stroke-width="1.5"></path><path d="M1282.58 508.6L1121.13 343.96" stroke="#132e65" stroke-width="1.5"></path><path d="M1282.58 508.6L1089.62 642.55" stroke="#132e65" stroke-width="1.5"></path><path d="M1282.58 508.6L1440.18 707.45" stroke="#132e65" stroke-width="1.5"></path><path d="M1243.1 711.95L1243.1 711.95" stroke="#132e65" stroke-width="1.5"></path><path d="M1243.1 711.95L1440.18 707.45" stroke="#132e65" stroke-width="1.5"></path><path d="M1243.1 711.95L1129.1 526.38" stroke="#132e65" stroke-width="1.5"></path><path d="M1243.1 711.95L967.35 549.35" stroke="#132e65" stroke-width="1.5"></path><path d="M1403.92 -56.77L1403.92 -56.77" stroke="#132e65" stroke-width="1.5"></path><path d="M1403.92 -56.77L1442.85 64.91" stroke="#132e65" stroke-width="1.5"></path><path d="M1403.92 -56.77L1266.26 54.41" stroke="#132e65" stroke-width="1.5"></path><path d="M1442.85 64.91L1442.85 64.91" stroke="#132e65" stroke-width="1.5"></path><path d="M1442.85 64.91L1551.89 72.05" stroke="#132e65" stroke-width="1.5"></path><path d="M1442.85 64.91L1407.24 210.64" stroke="#132e65" stroke-width="1.5"></path><path d="M1442.85 64.91L1266.26 54.41" stroke="#132e65" stroke-width="1.5"></path><path d="M1442.85 64.91L1605.98 -47.78" stroke="#132e65" stroke-width="1.5"></path><path d="M1407.24 210.64L1407.24 210.64" stroke="#132e65" stroke-width="1.5"></path><path d="M1398.68 394.23L1398.68 394.23" stroke="#132e65" stroke-width="1.5"></path><path d="M1398.68 394.23L1407.24 210.64" stroke="#132e65" stroke-width="1.5"></path><path d="M1398.68 394.23L1568.59 507.05" stroke="#132e65" stroke-width="1.5"></path><path d="M1398.68 394.23L1600.85 343.14" stroke="#132e65" stroke-width="1.5"></path><path d="M1440.18 707.45L1440.18 707.45" stroke="#132e65" stroke-width="1.5"></path><path d="M1440.18 707.45L1574.92 706.19" stroke="#132e65" stroke-width="1.5"></path><path d="M1440.18 707.45L1568.59 507.05" stroke="#132e65" stroke-width="1.5"></path><path d="M1440.18 707.45L1398.68 394.23" stroke="#132e65" stroke-width="1.5"></path><path d="M1605.98 -47.78L1605.98 -47.78" stroke="#132e65" stroke-width="1.5"></path><path d="M1605.98 -47.78L1551.89 72.05" stroke="#132e65" stroke-width="1.5"></path><path d="M1551.89 72.05L1551.89 72.05" stroke="#132e65" stroke-width="1.5"></path><path d="M1600.85 343.14L1600.85 343.14" stroke="#132e65" stroke-width="1.5"></path><path d="M1600.85 343.14L1568.59 507.05" stroke="#132e65" stroke-width="1.5"></path><path d="M1568.59 507.05L1568.59 507.05" stroke="#132e65" stroke-width="1.5"></path><path d="M1568.59 507.05L1574.92 706.19" stroke="#132e65" stroke-width="1.5"></path><path d="M1568.59 507.05L1282.58 508.6" stroke="#132e65" stroke-width="1.5"></path><path d="M1568.59 507.05L1407.24 210.64" stroke="#132e65" stroke-width="1.5"></path><path d="M1574.92 706.19L1574.92 706.19" stroke="#132e65" stroke-width="1.5"></path><path d="M1574.92 706.19L1243.1 711.95" stroke="#132e65" stroke-width="1.5"></path><path d="M1574.92 706.19L1282.58 508.6" stroke="#132e65" stroke-width="1.5"></path><path d="M1574.92 706.19L1398.68 394.23" stroke="#132e65" stroke-width="1.5"></path><path d="M1574.92 706.19L1600.85 343.14" stroke="#132e65" stroke-width="1.5"></path><circle r="5" cx="-81.42" cy="385.67" fill="#132e65"></circle><circle r="5" cx="-42.39" cy="514.69" fill="#132e65"></circle><circle r="5" cx="-97.71" cy="640.27" fill="#132e65"></circle><circle r="5" cx="78.21" cy="341.29" fill="#132e65"></circle><circle r="5" cx="51.1" cy="511.38" fill="#132e65"></circle><circle r="5" cx="42.08" cy="700.88" fill="#132e65"></circle><circle r="5" cx="258.86" cy="394.35" fill="#132e65"></circle><circle r="5" cx="229.79" cy="546.52" fill="#132e65"></circle><circle r="5" cx="203.68" cy="699.47" fill="#132e65"></circle><circle r="5" cx="374" cy="373.34" fill="#132e65"></circle><circle r="5" cx="346.45" cy="492.35" fill="#132e65"></circle><circle r="5" cx="373.75" cy="646.34" fill="#132e65"></circle><circle r="5" cx="510.03" cy="388.96" fill="#132e65"></circle><circle r="5" cx="527.59" cy="529.95" fill="#132e65"></circle><circle r="5" cx="492.55" cy="647.31" fill="#132e65"></circle><circle r="5" cx="657.93" cy="226.46" fill="#132e65"></circle><circle r="5" cx="679.28" cy="542.24" fill="#132e65"></circle><circle r="5" cx="680.99" cy="668.7" fill="#132e65"></circle><circle r="5" cx="824.83" cy="103.06" fill="#132e65"></circle><circle r="5" cx="857.64" cy="405.78" fill="#132e65"></circle><circle r="5" cx="802.95" cy="559.6" fill="#132e65"></circle><circle r="5" cx="855.96" cy="658.95" fill="#132e65"></circle><circle r="5" cx="1004.79" cy="-58.24" fill="#132e65"></circle><circle r="5" cx="1006.4" cy="100.58" fill="#132e65"></circle><circle r="5" cx="977.61" cy="259.8" fill="#132e65"></circle><circle r="5" cx="999.87" cy="388.19" fill="#132e65"></circle><circle r="5" cx="967.35" cy="549.35" fill="#132e65"></circle><circle r="5" cx="976.24" cy="670.61" fill="#132e65"></circle><circle r="5" cx="1154.79" cy="-95.52" fill="#132e65"></circle><circle r="5" cx="1126.7" cy="59.45" fill="#132e65"></circle><circle r="5" cx="1132.88" cy="255.62" fill="#132e65"></circle><circle r="5" cx="1121.13" cy="343.96" fill="#132e65"></circle><circle r="5" cx="1129.1" cy="526.38" fill="#132e65"></circle><circle r="5" cx="1089.62" cy="642.55" fill="#132e65"></circle><circle r="5" cx="1293.2" cy="-93.76" fill="#132e65"></circle><circle r="5" cx="1266.26" cy="54.41" fill="#132e65"></circle><circle r="5" cx="1255.87" cy="227.35" fill="#132e65"></circle><circle r="5" cx="1282.58" cy="508.6" fill="#132e65"></circle><circle r="5" cx="1243.1" cy="711.95" fill="#132e65"></circle><circle r="5" cx="1403.92" cy="-56.77" fill="#132e65"></circle><circle r="5" cx="1442.85" cy="64.91" fill="#132e65"></circle><circle r="5" cx="1407.24" cy="210.64" fill="#132e65"></circle><circle r="5" cx="1398.68" cy="394.23" fill="#132e65"></circle><circle r="5" cx="1440.18" cy="707.45" fill="#132e65"></circle><circle r="5" cx="1605.98" cy="-47.78" fill="#132e65"></circle><circle r="5" cx="1551.89" cy="72.05" fill="#132e65"></circle><circle r="5" cx="1600.85" cy="343.14" fill="#132e65"></circle><circle r="5" cx="1568.59" cy="507.05" fill="#132e65"></circle><circle r="5" cx="1574.92" cy="706.19" fill="#132e65"></circle><path d="M550.56 650.65L550.56 650.65" stroke="hsl(228.5, 77.2%, 51.5%)" stroke-width="1.5"></path><path d="M550.56 650.65L646.27 651.46" stroke="hsl(228.5, 77.2%, 51.5%)" stroke-width="1.5"></path><path d="M550.56 650.65L517.08 495.15" stroke="hsl(228.5, 77.2%, 51.5%)" stroke-width="1.5"></path><path d="M550.56 650.65L705.44 532.9" stroke="hsl(228.5, 77.2%, 51.5%)" stroke-width="1.5"></path><path d="M550.56 650.65L346.42 646.65" stroke="hsl(228.5, 77.2%, 51.5%)" stroke-width="1.5"></path><path d="M646.27 651.46L646.27 651.46" stroke="hsl(228.5, 77.2%, 51.5%)" stroke-width="1.5"></path><path d="M646.27 651.46L705.44 532.9" stroke="hsl(228.5, 77.2%, 51.5%)" stroke-width="1.5"></path><path d="M646.27 651.46L802.05 709.81" stroke="hsl(228.5, 77.2%, 51.5%)" stroke-width="1.5"></path><path d="M982.65 525.66L982.65 525.66" stroke="hsl(228.5, 77.2%, 51.5%)" stroke-width="1.5"></path><path d="M982.65 525.66L1104.27 541.41" stroke="hsl(228.5, 77.2%, 51.5%)" stroke-width="1.5"></path><path d="M982.65 525.66L946.08 691.1" stroke="hsl(228.5, 77.2%, 51.5%)" stroke-width="1.5"></path><path d="M1104.27 541.41L1104.27 541.41" stroke="hsl(228.5, 77.2%, 51.5%)" stroke-width="1.5"></path><path d="M1104.27 541.41L1126.02 642.22" stroke="hsl(228.5, 77.2%, 51.5%)" stroke-width="1.5"></path><path d="M1104.27 541.41L1264.48 552.9" stroke="hsl(228.5, 77.2%, 51.5%)" stroke-width="1.5"></path><path d="M1104.27 541.41L1112.95 351.54" stroke="hsl(228.5, 77.2%, 51.5%)" stroke-width="1.5"></path><path d="M1104.27 541.41L946.08 691.1" stroke="hsl(228.5, 77.2%, 51.5%)" stroke-width="1.5"></path><path d="M1104.27 541.41L997.59 348.28" stroke="hsl(228.5, 77.2%, 51.5%)" stroke-width="1.5"></path><path d="M1289.42 391.71L1289.42 391.71" stroke="hsl(228.5, 77.2%, 51.5%)" stroke-width="1.5"></path><path d="M1289.42 391.71L1419.72 366.95" stroke="hsl(228.5, 77.2%, 51.5%)" stroke-width="1.5"></path><path d="M1289.42 391.71L1279.69 237.74" stroke="hsl(228.5, 77.2%, 51.5%)" stroke-width="1.5"></path><path d="M1289.42 391.71L1264.48 552.9" stroke="hsl(228.5, 77.2%, 51.5%)" stroke-width="1.5"></path><path d="M1289.42 391.71L1397.25 523.95" stroke="hsl(228.5, 77.2%, 51.5%)" stroke-width="1.5"></path><path d="M1452.4 111.47L1452.4 111.47" stroke="hsl(228.5, 77.2%, 51.5%)" stroke-width="1.5"></path><path d="M1452.4 111.47L1405.58 217.74" stroke="hsl(228.5, 77.2%, 51.5%)" stroke-width="1.5"></path><path d="M1452.4 111.47L1604.87 94.21" stroke="hsl(228.5, 77.2%, 51.5%)" stroke-width="1.5"></path><path d="M1452.4 111.47L1592.75 206.99" stroke="hsl(228.5, 77.2%, 51.5%)" stroke-width="1.5"></path><path d="M1452.4 111.47L1430.72 -75.82" stroke="hsl(228.5, 77.2%, 51.5%)" stroke-width="1.5"></path><path d="M1452.4 111.47L1563.83 -57.85" stroke="hsl(228.5, 77.2%, 51.5%)" stroke-width="1.5"></path><path d="M1452.4 111.47L1243.2 79.73" stroke="hsl(228.5, 77.2%, 51.5%)" stroke-width="1.5"></path><path d="M1405.58 217.74L1405.58 217.74" stroke="hsl(228.5, 77.2%, 51.5%)" stroke-width="1.5"></path><path d="M1405.58 217.74L1279.69 237.74" stroke="hsl(228.5, 77.2%, 51.5%)" stroke-width="1.5"></path><path d="M1405.58 217.74L1419.72 366.95" stroke="hsl(228.5, 77.2%, 51.5%)" stroke-width="1.5"></path><path d="M1405.58 217.74L1592.75 206.99" stroke="hsl(228.5, 77.2%, 51.5%)" stroke-width="1.5"></path><path d="M1405.58 217.74L1289.42 391.71" stroke="hsl(228.5, 77.2%, 51.5%)" stroke-width="1.5"></path><path d="M1563.83 -57.85L1563.83 -57.85" stroke="hsl(228.5, 77.2%, 51.5%)" stroke-width="1.5"></path><path d="M1563.83 -57.85L1430.72 -75.82" stroke="hsl(228.5, 77.2%, 51.5%)" stroke-width="1.5"></path><path d="M1563.83 -57.85L1604.87 94.21" stroke="hsl(228.5, 77.2%, 51.5%)" stroke-width="1.5"></path><path d="M1604.87 94.21L1604.87 94.21" stroke="hsl(228.5, 77.2%, 51.5%)" stroke-width="1.5"></path><path d="M1604.87 94.21L1592.75 206.99" stroke="hsl(228.5, 77.2%, 51.5%)" stroke-width="1.5"></path><path d="M1604.87 94.21L1405.58 217.74" stroke="hsl(228.5, 77.2%, 51.5%)" stroke-width="1.5"></path><path d="M1604.87 94.21L1430.72 -75.82" stroke="hsl(228.5, 77.2%, 51.5%)" stroke-width="1.5"></path><path d="M-46.54 549.44L-46.54 549.44" stroke="hsl(228.5, 77.2%, 51.5%)" stroke-width="1.5"></path><path d="M-46.54 549.44L-54.12 644.24" stroke="hsl(228.5, 77.2%, 51.5%)" stroke-width="1.5"></path><path d="M-46.54 549.44L83.83 540.28" stroke="hsl(228.5, 77.2%, 51.5%)" stroke-width="1.5"></path><path d="M-54.12 644.24L-54.12 644.24" stroke="hsl(228.5, 77.2%, 51.5%)" stroke-width="1.5"></path><path d="M-54.12 644.24L52.94 701.69" stroke="hsl(228.5, 77.2%, 51.5%)" stroke-width="1.5"></path><path d="M83.83 540.28L83.83 540.28" stroke="hsl(228.5, 77.2%, 51.5%)" stroke-width="1.5"></path><path d="M83.83 540.28L52.94 701.69" stroke="hsl(228.5, 77.2%, 51.5%)" stroke-width="1.5"></path><path d="M52.94 701.69L52.94 701.69" stroke="hsl(228.5, 77.2%, 51.5%)" stroke-width="1.5"></path><path d="M52.94 701.69L214.4 682.45" stroke="hsl(228.5, 77.2%, 51.5%)" stroke-width="1.5"></path><path d="M249.51 493.95L249.51 493.95" stroke="hsl(228.5, 77.2%, 51.5%)" stroke-width="1.5"></path><path d="M249.51 493.95L340.23 540.19" stroke="hsl(228.5, 77.2%, 51.5%)" stroke-width="1.5"></path><path d="M249.51 493.95L83.83 540.28" stroke="hsl(228.5, 77.2%, 51.5%)" stroke-width="1.5"></path><path d="M249.51 493.95L346.42 646.65" stroke="hsl(228.5, 77.2%, 51.5%)" stroke-width="1.5"></path><path d="M214.4 682.45L214.4 682.45" stroke="hsl(228.5, 77.2%, 51.5%)" stroke-width="1.5"></path><path d="M214.4 682.45L346.42 646.65" stroke="hsl(228.5, 77.2%, 51.5%)" stroke-width="1.5"></path><path d="M214.4 682.45L340.23 540.19" stroke="hsl(228.5, 77.2%, 51.5%)" stroke-width="1.5"></path><path d="M214.4 682.45L249.51 493.95" stroke="hsl(228.5, 77.2%, 51.5%)" stroke-width="1.5"></path><path d="M340.23 540.19L340.23 540.19" stroke="hsl(228.5, 77.2%, 51.5%)" stroke-width="1.5"></path><path d="M340.23 540.19L346.42 646.65" stroke="hsl(228.5, 77.2%, 51.5%)" stroke-width="1.5"></path><path d="M340.23 540.19L517.08 495.15" stroke="hsl(228.5, 77.2%, 51.5%)" stroke-width="1.5"></path><path d="M346.42 646.65L346.42 646.65" stroke="hsl(228.5, 77.2%, 51.5%)" stroke-width="1.5"></path><path d="M517.08 495.15L517.08 495.15" stroke="hsl(228.5, 77.2%, 51.5%)" stroke-width="1.5"></path><path d="M517.08 495.15L705.44 532.9" stroke="hsl(228.5, 77.2%, 51.5%)" stroke-width="1.5"></path><path d="M517.08 495.15L679.13 386.46" stroke="hsl(228.5, 77.2%, 51.5%)" stroke-width="1.5"></path><path d="M517.08 495.15L646.27 651.46" stroke="hsl(228.5, 77.2%, 51.5%)" stroke-width="1.5"></path><path d="M517.08 495.15L346.42 646.65" stroke="hsl(228.5, 77.2%, 51.5%)" stroke-width="1.5"></path><path d="M679.13 386.46L679.13 386.46" stroke="hsl(228.5, 77.2%, 51.5%)" stroke-width="1.5"></path><path d="M679.13 386.46L809.73 360.69" stroke="hsl(228.5, 77.2%, 51.5%)" stroke-width="1.5"></path><path d="M679.13 386.46L705.44 532.9" stroke="hsl(228.5, 77.2%, 51.5%)" stroke-width="1.5"></path><path d="M679.13 386.46L814.32 487.95" stroke="hsl(228.5, 77.2%, 51.5%)" stroke-width="1.5"></path><path d="M679.13 386.46L646.27 651.46" stroke="hsl(228.5, 77.2%, 51.5%)" stroke-width="1.5"></path><path d="M705.44 532.9L705.44 532.9" stroke="hsl(228.5, 77.2%, 51.5%)" stroke-width="1.5"></path><path d="M705.44 532.9L814.32 487.95" stroke="hsl(228.5, 77.2%, 51.5%)" stroke-width="1.5"></path><path d="M809.73 360.69L809.73 360.69" stroke="hsl(228.5, 77.2%, 51.5%)" stroke-width="1.5"></path><path d="M809.73 360.69L814.32 487.95" stroke="hsl(228.5, 77.2%, 51.5%)" stroke-width="1.5"></path><path d="M809.73 360.69L997.59 348.28" stroke="hsl(228.5, 77.2%, 51.5%)" stroke-width="1.5"></path><path d="M809.73 360.69L705.44 532.9" stroke="hsl(228.5, 77.2%, 51.5%)" stroke-width="1.5"></path><path d="M809.73 360.69L982.65 525.66" stroke="hsl(228.5, 77.2%, 51.5%)" stroke-width="1.5"></path><path d="M809.73 360.69L1112.95 351.54" stroke="hsl(228.5, 77.2%, 51.5%)" stroke-width="1.5"></path><path d="M814.32 487.95L814.32 487.95" stroke="hsl(228.5, 77.2%, 51.5%)" stroke-width="1.5"></path><path d="M814.32 487.95L982.65 525.66" stroke="hsl(228.5, 77.2%, 51.5%)" stroke-width="1.5"></path><path d="M802.05 709.81L802.05 709.81" stroke="hsl(228.5, 77.2%, 51.5%)" stroke-width="1.5"></path><path d="M802.05 709.81L946.08 691.1" stroke="hsl(228.5, 77.2%, 51.5%)" stroke-width="1.5"></path><path d="M802.05 709.81L705.44 532.9" stroke="hsl(228.5, 77.2%, 51.5%)" stroke-width="1.5"></path><path d="M997.59 348.28L997.59 348.28" stroke="hsl(228.5, 77.2%, 51.5%)" stroke-width="1.5"></path><path d="M997.59 348.28L1112.95 351.54" stroke="hsl(228.5, 77.2%, 51.5%)" stroke-width="1.5"></path><path d="M997.59 348.28L982.65 525.66" stroke="hsl(228.5, 77.2%, 51.5%)" stroke-width="1.5"></path><path d="M997.59 348.28L1149.55 225.67" stroke="hsl(228.5, 77.2%, 51.5%)" stroke-width="1.5"></path><path d="M946.08 691.1L946.08 691.1" stroke="hsl(228.5, 77.2%, 51.5%)" stroke-width="1.5"></path><path d="M946.08 691.1L1126.02 642.22" stroke="hsl(228.5, 77.2%, 51.5%)" stroke-width="1.5"></path><path d="M1149.55 225.67L1149.55 225.67" stroke="hsl(228.5, 77.2%, 51.5%)" stroke-width="1.5"></path><path d="M1149.55 225.67L1279.69 237.74" stroke="hsl(228.5, 77.2%, 51.5%)" stroke-width="1.5"></path><path d="M1149.55 225.67L1112.95 351.54" stroke="hsl(228.5, 77.2%, 51.5%)" stroke-width="1.5"></path><path d="M1149.55 225.67L1243.2 79.73" stroke="hsl(228.5, 77.2%, 51.5%)" stroke-width="1.5"></path><path d="M1112.95 351.54L1112.95 351.54" stroke="hsl(228.5, 77.2%, 51.5%)" stroke-width="1.5"></path><path d="M1112.95 351.54L1289.42 391.71" stroke="hsl(228.5, 77.2%, 51.5%)" stroke-width="1.5"></path><path d="M1126.02 642.22L1126.02 642.22" stroke="hsl(228.5, 77.2%, 51.5%)" stroke-width="1.5"></path><path d="M1126.02 642.22L1264.48 552.9" stroke="hsl(228.5, 77.2%, 51.5%)" stroke-width="1.5"></path><path d="M1126.02 642.22L982.65 525.66" stroke="hsl(228.5, 77.2%, 51.5%)" stroke-width="1.5"></path><path d="M1126.02 642.22L1112.95 351.54" stroke="hsl(228.5, 77.2%, 51.5%)" stroke-width="1.5"></path><path d="M1272.85 -50.99L1272.85 -50.99" stroke="hsl(228.5, 77.2%, 51.5%)" stroke-width="1.5"></path><path d="M1272.85 -50.99L1243.2 79.73" stroke="hsl(228.5, 77.2%, 51.5%)" stroke-width="1.5"></path><path d="M1272.85 -50.99L1430.72 -75.82" stroke="hsl(228.5, 77.2%, 51.5%)" stroke-width="1.5"></path><path d="M1243.2 79.73L1243.2 79.73" stroke="hsl(228.5, 77.2%, 51.5%)" stroke-width="1.5"></path><path d="M1243.2 79.73L1279.69 237.74" stroke="hsl(228.5, 77.2%, 51.5%)" stroke-width="1.5"></path><path d="M1279.69 237.74L1279.69 237.74" stroke="hsl(228.5, 77.2%, 51.5%)" stroke-width="1.5"></path><path d="M1264.48 552.9L1264.48 552.9" stroke="hsl(228.5, 77.2%, 51.5%)" stroke-width="1.5"></path><path d="M1264.48 552.9L1397.25 523.95" stroke="hsl(228.5, 77.2%, 51.5%)" stroke-width="1.5"></path><path d="M1430.72 -75.82L1430.72 -75.82" stroke="hsl(228.5, 77.2%, 51.5%)" stroke-width="1.5"></path><path d="M1419.72 366.95L1419.72 366.95" stroke="hsl(228.5, 77.2%, 51.5%)" stroke-width="1.5"></path><path d="M1419.72 366.95L1537.53 409.88" stroke="hsl(228.5, 77.2%, 51.5%)" stroke-width="1.5"></path><path d="M1419.72 366.95L1397.25 523.95" stroke="hsl(228.5, 77.2%, 51.5%)" stroke-width="1.5"></path><path d="M1397.25 523.95L1397.25 523.95" stroke="hsl(228.5, 77.2%, 51.5%)" stroke-width="1.5"></path><path d="M1397.25 523.95L1537.53 409.88" stroke="hsl(228.5, 77.2%, 51.5%)" stroke-width="1.5"></path><path d="M1397.25 523.95L1592.05 560.79" stroke="hsl(228.5, 77.2%, 51.5%)" stroke-width="1.5"></path><path d="M1592.75 206.99L1592.75 206.99" stroke="hsl(228.5, 77.2%, 51.5%)" stroke-width="1.5"></path><path d="M1537.53 409.88L1537.53 409.88" stroke="hsl(228.5, 77.2%, 51.5%)" stroke-width="1.5"></path><path d="M1592.05 560.79L1592.05 560.79" stroke="hsl(228.5, 77.2%, 51.5%)" stroke-width="1.5"></path><path d="M1592.05 560.79L1537.53 409.88" stroke="hsl(228.5, 77.2%, 51.5%)" stroke-width="1.5"></path><circle r="25" cx="550.56" cy="650.65" fill="url(#SvgjsRadialGradient1001)"></circle><circle r="25" cx="646.27" cy="651.46" fill="url(#SvgjsRadialGradient1001)"></circle><circle r="25" cx="982.65" cy="525.66" fill="url(#SvgjsRadialGradient1001)"></circle><circle r="25" cx="1104.27" cy="541.41" fill="url(#SvgjsRadialGradient1001)"></circle><circle r="25" cx="1289.42" cy="391.71" fill="url(#SvgjsRadialGradient1001)"></circle><circle r="25" cx="1452.4" cy="111.47" fill="url(#SvgjsRadialGradient1001)"></circle><circle r="25" cx="1405.58" cy="217.74" fill="url(#SvgjsRadialGradient1001)"></circle><circle r="25" cx="1563.83" cy="-57.85" fill="url(#SvgjsRadialGradient1001)"></circle><circle r="25" cx="1604.87" cy="94.21" fill="url(#SvgjsRadialGradient1001)"></circle><circle r="5" cx="-46.54" cy="549.44" fill="#8b9ad9"></circle><circle r="5" cx="-54.12" cy="644.24" fill="#8b9ad9"></circle><circle r="5" cx="83.83" cy="540.28" fill="#8b9ad9"></circle><circle r="5" cx="52.94" cy="701.69" fill="#8b9ad9"></circle><circle r="5" cx="249.51" cy="493.95" fill="#8b9ad9"></circle><circle r="5" cx="214.4" cy="682.45" fill="#8b9ad9"></circle><circle r="5" cx="340.23" cy="540.19" fill="#8b9ad9"></circle><circle r="5" cx="346.42" cy="646.65" fill="#8b9ad9"></circle><circle r="5" cx="517.08" cy="495.15" fill="#8b9ad9"></circle><circle r="5" cx="679.13" cy="386.46" fill="#8b9ad9"></circle><circle r="5" cx="705.44" cy="532.9" fill="#8b9ad9"></circle><circle r="5" cx="809.73" cy="360.69" fill="#8b9ad9"></circle><circle r="5" cx="814.32" cy="487.95" fill="#8b9ad9"></circle><circle r="5" cx="802.05" cy="709.81" fill="#8b9ad9"></circle><circle r="5" cx="997.59" cy="348.28" fill="#8b9ad9"></circle><circle r="5" cx="946.08" cy="691.1" fill="#8b9ad9"></circle><circle r="5" cx="1149.55" cy="225.67" fill="#8b9ad9"></circle><circle r="5" cx="1112.95" cy="351.54" fill="#8b9ad9"></circle><circle r="5" cx="1126.02" cy="642.22" fill="#8b9ad9"></circle><circle r="5" cx="1272.85" cy="-50.99" fill="#8b9ad9"></circle><circle r="5" cx="1243.2" cy="79.73" fill="#8b9ad9"></circle><circle r="5" cx="1279.69" cy="237.74" fill="#8b9ad9"></circle><circle r="5" cx="1264.48" cy="552.9" fill="#8b9ad9"></circle><circle r="5" cx="1430.72" cy="-75.82" fill="#8b9ad9"></circle><circle r="5" cx="1419.72" cy="366.95" fill="#8b9ad9"></circle><circle r="5" cx="1397.25" cy="523.95" fill="#8b9ad9"></circle><circle r="5" cx="1592.75" cy="206.99" fill="#8b9ad9"></circle><circle r="5" cx="1537.53" cy="409.88" fill="#8b9ad9"></circle><circle r="5" cx="1592.05" cy="560.79" fill="#8b9ad9"></circle></g><defs><mask id="SvgjsMask1000"><rect width="1440" height="560" fill="#ffffff"></rect></mask><radialGradient id="SvgjsRadialGradient1001"><stop stop-color="#ffffff" offset="0.1"></stop><stop stop-color="#1735b3" offset="0.2"></stop><stop stop-color="rgba(23, 53, 179, 0)" offset="1"></stop></radialGradient></defs></svg>